<?xml version="1.0" encoding="UTF-8"?>
<svg id="Layer_2" data-name="Layer 2" xmlns="http://www.w3.org/2000/svg" viewBox="0 0 311.91 331.01">
  <defs>
    <style>
      .cls-1 {
        fill: #27749b;
        stroke-width: 0px;
      }
    </style>
  </defs>
  <g id="Layer_1-2" data-name="Layer 1">
    <path class="cls-1" d="M235.11,307.64c-1.13-2.12-2.47-5.07-4.22-7.77-1.91-2.95-3.69-6.31-6.38-8.38-34.04-26.22-68.23-52.24-102.39-78.31-1.68-1.28-3.4-2.51-6.01-4.43,1.72,9.22,3.37,17.31,4.72,25.44,2.54,15.38,3.67,30.79-.49,46.1-4.83,17.78-15.92,30.63-31.85,39.96,25.5-24.89,23.94-52.47,8.61-81.5,7.05,22.57,4.4,43.5-10.52,62.42,6.16-15.75,6.94-31.87,3.35-48.63-4.04,36.38-21.39,63.24-55.16,78.46,11.32-9.95,19.87-21.64,23.14-36.79-8.91,12.06-19.32,22.45-31.82,30.33,8.69-18.78,17.39-37.59,26.09-56.4-.42-.19-.83-.38-1.25-.57-5.81,8.35-11.61,16.7-18.22,26.19,1.85-11.13,3.44-20.61,5.12-30.73,14.57-.23,28.09-6.1,40.37-15.33-2.41,1.06-4.81,2.16-7.23,3.19-10.02,4.25-20.16,7.9-31.37,6.82-2.5-.24-3.59-1.1-4.43-3.6-2.88-8.58-6.19-17.02-9.35-25.55,8.69.29,15.47-4.98,21.78-13.89-10.66,6.96-20.26,13.39-32.96,4.98,12.38,3.16,16.24,2.66,22.43-2.76-8.88,3.83-17.12,3.12-24.66-3.05-11.77-9.63-15.57-29.6-9.61-39.24.89,3.61,1.49,7.36,2.74,10.88,2.11,5.94,6.09,10.26,12.32,12.15,11.34,3.44,19.6-1.85,20.21-13.54.32-6.05,3.19-9.26,8.58-10.64,5.96-1.53,12.03-2.66,18-4.14,3.01-.74,5.92-1.88,8.61-3.82-10.89,1.99-21.78,3.99-33.12,6.06,1.1-2.24,2.32-4.72,3.98-8.1-5.19,4.37-7.01,9.37-8.06,14.78-.35,1.8-.55,3.62-.9,5.42-.95,4.89-1.27,10.21-7.51,11.7-6.3,1.51-13.32-1.22-17.15-6.64-7.59-10.74-4.56-28.7,6.16-38.2,6.12-5.43,13.14-6.72,20.92-5.83,9.27,1.07,18.53,2.19,27.82,3.03,3.92.36,7.91.06,11.88-.67-14.09-1.65-28.17-3.3-42.26-4.95-.07-.51-.13-1.02-.2-1.53,6.62-1.22,13.36-1.97,19.81-3.78,6.49-1.83,12.69-4.7,18.83-7.79-14.95,4.8-30.15,7.53-46.51,7.71,1.98-5.22,3.52-10.1,5.74-14.64.66-1.36,3.14-2.09,4.94-2.59,11.39-3.13,22.82-6.11,34.22-9.18,1.73-.47,3.39-1.16,4.92-2.27-14.18,2.98-28.37,5.96-43.16,9.08,0-7.97-.31-15.21.19-22.39.15-2.12,2.45-4.23,4.07-6.08,10.74-12.32,32.54-13.96,46.66-8.69-5.97,2.24-11.33,4.39-16.77,6.26-5.3,1.82-10.69,3.36-16.05,5.02.14.47.27.95.41,1.42,9.9-2.88,19.94-5.37,29.64-8.81,4.8-1.7,7.89-1.74,10.6,2.95,1.98,3.43,4.44,6.61,6.96,9.68,1.28,1.56,3.17,2.63,5.35,4.38-1.42,2.55-3.5,6.29-5.45,9.82,4.4-2.45,8.83-8.33,10.27-14.42,6.09-25.77,12.12-51.56,18.04-77.37.36-1.59-.16-3.53-.71-5.16-1.51-4.53-3.25-8.99-4.49-13.71,14.3,24.69,39.24,37,60.93,52.93,21.76,15.98,42.25,33.1,56.24,56.69,3.55,5.98,6.56,12.29,9.97,18.75,15.12-2.75,30.32-5.51,46.03-8.37-1.98-1.03-3.53-1.85-5.08-2.66.13-.42.25-.84.38-1.26,6.56.99,13.12,1.99,21.13,3.2-7.15,4.05-13.01,7.37-19.38,10.98.3-1.91.53-3.38.87-5.57-14.47,2.21-28.54,4.36-42.2,6.45-.73,8.17,5.56,11.48,9.59,16.18,1.39,1.62,1.92,2.27.27,4.4-1.77,2.28-3.36,5.79-3,8.49,4.37,32.36-1.53,63.36-11.7,93.86-3.21,9.62-7.48,18.99-9.65,28.83-1.78,8.07-1.17,16.67-1.61,24.75ZM97.2,149.78c1.52,5.95,3.98,10.97,9.36,12.79,6.21,2.09,12.8,3.26,19.31,4.22,5.45.81,9.22,3.05,10.44,8.43.79,3.5.58,7.23.83,11.08,3.52-6.11,1.61-11.89-.23-16.25,6.59-2.24,12.93-4.37,19.25-6.56,2.83-.98,5.55-2.3,8.41-3.14,12.81-3.77,20.31-.59,26.45,10.74-.44-2.46-.93-5.01-2.21-7.07-1.43-2.3-3.57-4.16-5.6-6.43,3.83-.26,7.46-.25,11.01-.79,11.23-1.72,11.98-1.42,17.41,7.96-1.46-3.5-2.92-6.99-4.43-10.6,7.55-3.96,18.07-2.69,23.56-11.5-2.72-4.84-5.75-7.47-11.93-6.26-18.46,3.62-37.04,6.58-55.58,9.76-5.2.89-10.43,1.66-15.64,2.49-.05-.34-.09-.67-.14-1.01,30.14-5.7,60.29-11.41,90.43-17.11-.06-.39-.11-.78-.17-1.17h-13.82c2.28-9.84,3.74-19.38-.09-28.77-3.79-9.29-10.37-16.25-18.47-21.85,14,16.82,16.59,21.54,15.23,28.57-7.23-13.4-17.9-23.69-29.18-33.3-15.21-12.95-30.74-25.52-46.12-38.28-5.72-4.74-11.38-9.55-17.07-14.33,1.08-.71.79.06.6.86-6.18,26.43-12.36,52.86-18.53,79.29-1.4,5.98-4.08,12.07-3.66,17.94.31,4.34-.3,5.91-4.39,6.77,1.85,3.81,1.55,6.75-3.13,8.38,1.56.47,2.48.75,4.19,1.27-6.95,4.27.74,8.93-1.22,13.38-1.62.17-3.08.32-4.89.51ZM227.06,290.67c2.91-10.62,5.54-21.2,8.71-31.62,6.05-19.82,11.2-39.82,11.36-60.67.08-9.66-1.23-19.34-2.01-30.51,2.58,8,4.75,14.75,6.92,21.5-.43-11.28-4.58-21.25-10.59-31.74-4.13,3.15-7.72,5.88-11.6,8.83-.83-4.67-1.45-8.11-2.06-11.55-1.1.5-1.23.82-1.2,1.13.92,10.02.76,10.27-8.54,13.71-.3.11-.58.29-.86.46-5.8,3.41-11.43,7.16-17.45,10.12-4.43,2.18-9.98,2.44-13.93,5.16-6.09,4.19-12.55,4.96-19.42,5.02-5.53.05-11.05.01-16.58.01,0,.54,0,1.09,0,1.63,1.71.17,3.43.33,5.61.54-12.33,3.28-24.14,6.43-35.86,9.55-2.97-6.81-5.85-13.41-8.73-20,.97,6.52,3.12,12.62,4.23,18.9.65,3.66,2.24,5.94,5.02,8.03,15.28,11.54,30.49,23.18,45.72,34.79,20.65,15.74,41.29,31.48,61.26,46.69Z"/>
  </g>
</svg>